<mxfile host="app.diagrams.net" agent="Mozilla/5.0 (Windows NT 10.0; Win64; x64) AppleWebKit/537.36 (KHTML, like Gecko) Chrome/135.0.0.0 Safari/537.36 Edg/135.0.0.0" version="26.2.14">
  <diagram name="Page-1" id="2YBvvXClWsGukQMizWep">
    <mxGraphModel dx="3606" dy="486" grid="1" gridSize="10" guides="1" tooltips="1" connect="1" arrows="1" fold="1" page="1" pageScale="1" pageWidth="850" pageHeight="1100" math="0" shadow="0">
      <root>
        <mxCell id="0" />
        <mxCell id="1" parent="0" />
        <mxCell id="VAy14Np7KbdLVpJw_eZG-14" value=":AccountController" style="shape=umlLifeline;perimeter=lifelinePerimeter;whiteSpace=wrap;html=1;container=0;dropTarget=0;collapsible=0;recursiveResize=0;outlineConnect=0;portConstraint=eastwest;newEdgeStyle={&quot;edgeStyle&quot;:&quot;elbowEdgeStyle&quot;,&quot;elbow&quot;:&quot;vertical&quot;,&quot;curved&quot;:0,&quot;rounded&quot;:0};" parent="1" vertex="1">
          <mxGeometry x="-220" y="1295" width="160" height="945" as="geometry" />
        </mxCell>
        <mxCell id="VAy14Np7KbdLVpJw_eZG-20" value="" style="html=1;points=[];perimeter=orthogonalPerimeter;outlineConnect=0;targetShapes=umlLifeline;portConstraint=eastwest;newEdgeStyle={&quot;edgeStyle&quot;:&quot;elbowEdgeStyle&quot;,&quot;elbow&quot;:&quot;vertical&quot;,&quot;curved&quot;:0,&quot;rounded&quot;:0};" parent="VAy14Np7KbdLVpJw_eZG-14" vertex="1">
          <mxGeometry x="75" y="100" width="10" height="90" as="geometry" />
        </mxCell>
        <mxCell id="VAy14Np7KbdLVpJw_eZG-19" value=":ApplicantList" style="shape=umlLifeline;perimeter=lifelinePerimeter;whiteSpace=wrap;html=1;container=0;dropTarget=0;collapsible=0;recursiveResize=0;outlineConnect=0;portConstraint=eastwest;newEdgeStyle={&quot;edgeStyle&quot;:&quot;elbowEdgeStyle&quot;,&quot;elbow&quot;:&quot;vertical&quot;,&quot;curved&quot;:0,&quot;rounded&quot;:0};" parent="1" vertex="1">
          <mxGeometry x="-50" y="1295" width="160" height="945" as="geometry" />
        </mxCell>
        <mxCell id="rTC_AdGIr1xHkLju1-tS-6" value="" style="html=1;points=[];perimeter=orthogonalPerimeter;outlineConnect=0;targetShapes=umlLifeline;portConstraint=eastwest;newEdgeStyle={&quot;edgeStyle&quot;:&quot;elbowEdgeStyle&quot;,&quot;elbow&quot;:&quot;vertical&quot;,&quot;curved&quot;:0,&quot;rounded&quot;:0};" parent="VAy14Np7KbdLVpJw_eZG-19" vertex="1">
          <mxGeometry x="75" y="205" width="10" height="135" as="geometry" />
        </mxCell>
        <mxCell id="VAy14Np7KbdLVpJw_eZG-1" value="applicant: Applicant" style="shape=umlLifeline;perimeter=lifelinePerimeter;whiteSpace=wrap;html=1;container=0;dropTarget=0;collapsible=0;recursiveResize=0;outlineConnect=0;portConstraint=eastwest;newEdgeStyle={&quot;edgeStyle&quot;:&quot;elbowEdgeStyle&quot;,&quot;elbow&quot;:&quot;vertical&quot;,&quot;curved&quot;:0,&quot;rounded&quot;:0};" parent="1" vertex="1">
          <mxGeometry x="130" y="1295" width="140" height="945" as="geometry" />
        </mxCell>
        <mxCell id="VAy14Np7KbdLVpJw_eZG-3" value="Officer Application of Project" style="shape=umlFrame;whiteSpace=wrap;html=1;pointerEvents=0;width=180;height=30;" parent="1" vertex="1">
          <mxGeometry x="-580" y="1250" width="1610" height="1010" as="geometry" />
        </mxCell>
        <mxCell id="VAy14Np7KbdLVpJw_eZG-4" value="" style="edgeStyle=orthogonalEdgeStyle;rounded=0;orthogonalLoop=1;jettySize=auto;html=1;" parent="1" target="VAy14Np7KbdLVpJw_eZG-6" edge="1">
          <mxGeometry relative="1" as="geometry">
            <mxPoint x="-495" y="1370" as="sourcePoint" />
            <Array as="points">
              <mxPoint x="-495" y="1420" />
              <mxPoint x="-495" y="1420" />
            </Array>
          </mxGeometry>
        </mxCell>
        <mxCell id="VAy14Np7KbdLVpJw_eZG-5" value="Officer" style="shape=umlActor;verticalLabelPosition=bottom;verticalAlign=top;html=1;outlineConnect=0;" parent="1" vertex="1">
          <mxGeometry x="-510" y="1290" width="30" height="60" as="geometry" />
        </mxCell>
        <mxCell id="VAy14Np7KbdLVpJw_eZG-6" value="" style="html=1;points=[[0,0,0,0,5],[0,1,0,0,-5],[1,0,0,0,5],[1,1,0,0,-5]];perimeter=orthogonalPerimeter;outlineConnect=0;targetShapes=umlLifeline;portConstraint=eastwest;newEdgeStyle={&quot;curved&quot;:0,&quot;rounded&quot;:0};" parent="1" vertex="1">
          <mxGeometry x="-500" y="1390" width="10" height="850" as="geometry" />
        </mxCell>
        <mxCell id="VAy14Np7KbdLVpJw_eZG-8" value=":OfficerPage" style="shape=umlLifeline;perimeter=lifelinePerimeter;whiteSpace=wrap;html=1;container=0;dropTarget=0;collapsible=0;recursiveResize=0;outlineConnect=0;portConstraint=eastwest;newEdgeStyle={&quot;edgeStyle&quot;:&quot;elbowEdgeStyle&quot;,&quot;elbow&quot;:&quot;vertical&quot;,&quot;curved&quot;:0,&quot;rounded&quot;:0};" parent="1" vertex="1">
          <mxGeometry x="-380" y="1295" width="140" height="945" as="geometry" />
        </mxCell>
        <mxCell id="VAy14Np7KbdLVpJw_eZG-9" value="" style="html=1;points=[];perimeter=orthogonalPerimeter;outlineConnect=0;targetShapes=umlLifeline;portConstraint=eastwest;newEdgeStyle={&quot;edgeStyle&quot;:&quot;elbowEdgeStyle&quot;,&quot;elbow&quot;:&quot;vertical&quot;,&quot;curved&quot;:0,&quot;rounded&quot;:0};" parent="VAy14Np7KbdLVpJw_eZG-8" vertex="1">
          <mxGeometry x="65" y="80" width="10" height="870" as="geometry" />
        </mxCell>
        <mxCell id="VAy14Np7KbdLVpJw_eZG-10" value="selects applyProject()" style="html=1;verticalAlign=bottom;endArrow=block;edgeStyle=elbowEdgeStyle;elbow=vertical;curved=0;rounded=0;" parent="1" edge="1">
          <mxGeometry x="0.0057" relative="1" as="geometry">
            <mxPoint x="-490" y="1420" as="sourcePoint" />
            <Array as="points">
              <mxPoint x="-435" y="1420" />
            </Array>
            <mxPoint x="-315" y="1420" as="targetPoint" />
            <mxPoint as="offset" />
          </mxGeometry>
        </mxCell>
        <mxCell id="VAy14Np7KbdLVpJw_eZG-17" value=":UIController" style="shape=umlLifeline;perimeter=lifelinePerimeter;whiteSpace=wrap;html=1;container=0;dropTarget=0;collapsible=0;recursiveResize=0;outlineConnect=0;portConstraint=eastwest;newEdgeStyle={&quot;edgeStyle&quot;:&quot;elbowEdgeStyle&quot;,&quot;elbow&quot;:&quot;vertical&quot;,&quot;curved&quot;:0,&quot;rounded&quot;:0};" parent="1" vertex="1">
          <mxGeometry x="300" y="1295" width="125" height="945" as="geometry" />
        </mxCell>
        <mxCell id="rTC_AdGIr1xHkLju1-tS-19" value="" style="html=1;points=[];perimeter=orthogonalPerimeter;outlineConnect=0;targetShapes=umlLifeline;portConstraint=eastwest;newEdgeStyle={&quot;edgeStyle&quot;:&quot;elbowEdgeStyle&quot;,&quot;elbow&quot;:&quot;vertical&quot;,&quot;curved&quot;:0,&quot;rounded&quot;:0};" parent="VAy14Np7KbdLVpJw_eZG-17" vertex="1">
          <mxGeometry x="57.5" y="418" width="10" height="55" as="geometry" />
        </mxCell>
        <mxCell id="rTC_AdGIr1xHkLju1-tS-64" value="" style="html=1;points=[];perimeter=orthogonalPerimeter;outlineConnect=0;targetShapes=umlLifeline;portConstraint=eastwest;newEdgeStyle={&quot;edgeStyle&quot;:&quot;elbowEdgeStyle&quot;,&quot;elbow&quot;:&quot;vertical&quot;,&quot;curved&quot;:0,&quot;rounded&quot;:0};" parent="VAy14Np7KbdLVpJw_eZG-17" vertex="1">
          <mxGeometry x="58.75" y="875" width="10" height="55" as="geometry" />
        </mxCell>
        <mxCell id="rTC_AdGIr1xHkLju1-tS-65" value="loopOfficer()" style="html=1;verticalAlign=bottom;endArrow=block;edgeStyle=elbowEdgeStyle;elbow=horizontal;curved=0;rounded=0;labelBackgroundColor=default;" parent="VAy14Np7KbdLVpJw_eZG-17" target="rTC_AdGIr1xHkLju1-tS-64" edge="1">
          <mxGeometry relative="1" as="geometry">
            <mxPoint x="-603.75" y="892" as="sourcePoint" />
            <Array as="points">
              <mxPoint x="-501.25" y="892" />
              <mxPoint x="-181.25" y="872" />
              <mxPoint x="-526.25" y="882" />
            </Array>
            <mxPoint x="51.25" y="892" as="targetPoint" />
            <mxPoint as="offset" />
          </mxGeometry>
        </mxCell>
        <mxCell id="rTC_AdGIr1xHkLju1-tS-66" style="edgeStyle=elbowEdgeStyle;rounded=0;orthogonalLoop=1;jettySize=auto;html=1;elbow=horizontal;curved=0;" parent="VAy14Np7KbdLVpJw_eZG-17" edge="1">
          <mxGeometry relative="1" as="geometry">
            <mxPoint x="58.75" y="918.9983870967744" as="sourcePoint" />
            <mxPoint x="-603.75" y="918.9983870967744" as="targetPoint" />
          </mxGeometry>
        </mxCell>
        <mxCell id="rTC_AdGIr1xHkLju1-tS-67" value="allOption()" style="edgeLabel;html=1;align=center;verticalAlign=middle;resizable=0;points=[];" parent="rTC_AdGIr1xHkLju1-tS-66" vertex="1" connectable="0">
          <mxGeometry x="-0.0216" y="-1" relative="1" as="geometry">
            <mxPoint x="-8" y="-8" as="offset" />
          </mxGeometry>
        </mxCell>
        <mxCell id="VAy14Np7KbdLVpJw_eZG-21" value="getUserID()" style="html=1;verticalAlign=bottom;endArrow=block;edgeStyle=elbowEdgeStyle;elbow=vertical;curved=0;rounded=0;" parent="1" target="VAy14Np7KbdLVpJw_eZG-20" edge="1">
          <mxGeometry relative="1" as="geometry">
            <mxPoint x="-305" y="1420" as="sourcePoint" />
            <Array as="points">
              <mxPoint x="-210" y="1420" />
              <mxPoint x="110" y="1400" />
              <mxPoint x="-235" y="1410" />
            </Array>
            <mxPoint x="25" y="1420" as="targetPoint" />
            <mxPoint as="offset" />
          </mxGeometry>
        </mxCell>
        <mxCell id="VAy14Np7KbdLVpJw_eZG-23" value=":IOController" style="shape=umlLifeline;perimeter=lifelinePerimeter;whiteSpace=wrap;html=1;container=0;dropTarget=0;collapsible=0;recursiveResize=0;outlineConnect=0;portConstraint=eastwest;newEdgeStyle={&quot;edgeStyle&quot;:&quot;elbowEdgeStyle&quot;,&quot;elbow&quot;:&quot;vertical&quot;,&quot;curved&quot;:0,&quot;rounded&quot;:0};" parent="1" vertex="1">
          <mxGeometry x="460" y="1297.5" width="160" height="942.5" as="geometry" />
        </mxCell>
        <mxCell id="rTC_AdGIr1xHkLju1-tS-27" value="" style="html=1;points=[];perimeter=orthogonalPerimeter;outlineConnect=0;targetShapes=umlLifeline;portConstraint=eastwest;newEdgeStyle={&quot;edgeStyle&quot;:&quot;elbowEdgeStyle&quot;,&quot;elbow&quot;:&quot;vertical&quot;,&quot;curved&quot;:0,&quot;rounded&quot;:0};" parent="VAy14Np7KbdLVpJw_eZG-23" vertex="1">
          <mxGeometry x="75" y="492.5" width="10" height="55" as="geometry" />
        </mxCell>
        <mxCell id="VAy14Np7KbdLVpJw_eZG-40" value=":ApplicantRequestController" style="shape=umlLifeline;perimeter=lifelinePerimeter;whiteSpace=wrap;html=1;container=0;dropTarget=0;collapsible=0;recursiveResize=0;outlineConnect=0;portConstraint=eastwest;newEdgeStyle={&quot;edgeStyle&quot;:&quot;elbowEdgeStyle&quot;,&quot;elbow&quot;:&quot;vertical&quot;,&quot;curved&quot;:0,&quot;rounded&quot;:0};" parent="1" vertex="1">
          <mxGeometry x="810" y="1295" width="160" height="955" as="geometry" />
        </mxCell>
        <mxCell id="rTC_AdGIr1xHkLju1-tS-54" value="" style="html=1;points=[];perimeter=orthogonalPerimeter;outlineConnect=0;targetShapes=umlLifeline;portConstraint=eastwest;newEdgeStyle={&quot;edgeStyle&quot;:&quot;elbowEdgeStyle&quot;,&quot;elbow&quot;:&quot;vertical&quot;,&quot;curved&quot;:0,&quot;rounded&quot;:0};" parent="VAy14Np7KbdLVpJw_eZG-40" vertex="1">
          <mxGeometry x="75" y="788" width="10" height="55" as="geometry" />
        </mxCell>
        <mxCell id="VAy14Np7KbdLVpJw_eZG-56" value="ProjectList" style="shape=umlLifeline;perimeter=lifelinePerimeter;whiteSpace=wrap;html=1;container=0;dropTarget=0;collapsible=0;recursiveResize=0;outlineConnect=0;portConstraint=eastwest;newEdgeStyle={&quot;edgeStyle&quot;:&quot;elbowEdgeStyle&quot;,&quot;elbow&quot;:&quot;vertical&quot;,&quot;curved&quot;:0,&quot;rounded&quot;:0};" parent="1" vertex="1">
          <mxGeometry x="640" y="1296.25" width="160" height="943.75" as="geometry" />
        </mxCell>
        <mxCell id="rTC_AdGIr1xHkLju1-tS-34" value="" style="html=1;points=[];perimeter=orthogonalPerimeter;outlineConnect=0;targetShapes=umlLifeline;portConstraint=eastwest;newEdgeStyle={&quot;edgeStyle&quot;:&quot;elbowEdgeStyle&quot;,&quot;elbow&quot;:&quot;vertical&quot;,&quot;curved&quot;:0,&quot;rounded&quot;:0};" parent="VAy14Np7KbdLVpJw_eZG-56" vertex="1">
          <mxGeometry x="75" y="558.13" width="10" height="126.25" as="geometry" />
        </mxCell>
        <mxCell id="rTC_AdGIr1xHkLju1-tS-4" value="" style="html=1;verticalAlign=bottom;labelBackgroundColor=none;endArrow=open;endFill=0;dashed=1;rounded=0;" parent="1" edge="1">
          <mxGeometry width="160" relative="1" as="geometry">
            <mxPoint x="-145" y="1450" as="sourcePoint" />
            <mxPoint x="-305" y="1450" as="targetPoint" />
          </mxGeometry>
        </mxCell>
        <mxCell id="rTC_AdGIr1xHkLju1-tS-5" value="userID" style="edgeLabel;html=1;align=center;verticalAlign=middle;resizable=0;points=[];" parent="rTC_AdGIr1xHkLju1-tS-4" vertex="1" connectable="0">
          <mxGeometry x="0.1177" y="1" relative="1" as="geometry">
            <mxPoint x="14" y="-11" as="offset" />
          </mxGeometry>
        </mxCell>
        <mxCell id="rTC_AdGIr1xHkLju1-tS-7" value="getInstance()" style="html=1;verticalAlign=bottom;endArrow=block;edgeStyle=elbowEdgeStyle;elbow=horizontal;curved=0;rounded=0;" parent="1" source="VAy14Np7KbdLVpJw_eZG-9" target="rTC_AdGIr1xHkLju1-tS-6" edge="1">
          <mxGeometry relative="1" as="geometry">
            <mxPoint x="-250" y="1520" as="sourcePoint" />
            <Array as="points">
              <mxPoint x="-205" y="1520" />
              <mxPoint x="115" y="1500" />
              <mxPoint x="-230" y="1510" />
            </Array>
            <mxPoint x="-220" y="1520" as="targetPoint" />
            <mxPoint as="offset" />
          </mxGeometry>
        </mxCell>
        <mxCell id="rTC_AdGIr1xHkLju1-tS-8" value="" style="html=1;verticalAlign=bottom;labelBackgroundColor=none;endArrow=open;endFill=0;dashed=1;rounded=0;" parent="1" edge="1">
          <mxGeometry width="160" relative="1" as="geometry">
            <mxPoint x="25" y="1560" as="sourcePoint" />
            <mxPoint x="-305" y="1560" as="targetPoint" />
          </mxGeometry>
        </mxCell>
        <mxCell id="rTC_AdGIr1xHkLju1-tS-9" value="Instance of Applicant list" style="edgeLabel;html=1;align=center;verticalAlign=middle;resizable=0;points=[];" parent="rTC_AdGIr1xHkLju1-tS-8" vertex="1" connectable="0">
          <mxGeometry x="0.1177" y="1" relative="1" as="geometry">
            <mxPoint x="14" y="-11" as="offset" />
          </mxGeometry>
        </mxCell>
        <mxCell id="rTC_AdGIr1xHkLju1-tS-10" value="getByID(userID)" style="html=1;verticalAlign=bottom;endArrow=block;edgeStyle=elbowEdgeStyle;elbow=horizontal;curved=0;rounded=0;" parent="1" edge="1">
          <mxGeometry relative="1" as="geometry">
            <mxPoint x="-305" y="1590" as="sourcePoint" />
            <Array as="points">
              <mxPoint x="-205" y="1590" />
              <mxPoint x="115" y="1570" />
              <mxPoint x="-230" y="1580" />
            </Array>
            <mxPoint x="25" y="1590" as="targetPoint" />
            <mxPoint as="offset" />
          </mxGeometry>
        </mxCell>
        <mxCell id="rTC_AdGIr1xHkLju1-tS-12" value="" style="html=1;verticalAlign=bottom;labelBackgroundColor=none;endArrow=open;endFill=0;dashed=1;rounded=0;" parent="1" edge="1">
          <mxGeometry width="160" relative="1" as="geometry">
            <mxPoint x="25" y="1620" as="sourcePoint" />
            <mxPoint x="-305" y="1620" as="targetPoint" />
          </mxGeometry>
        </mxCell>
        <mxCell id="rTC_AdGIr1xHkLju1-tS-13" value="applicant" style="edgeLabel;html=1;align=center;verticalAlign=middle;resizable=0;points=[];" parent="rTC_AdGIr1xHkLju1-tS-12" vertex="1" connectable="0">
          <mxGeometry x="0.1177" y="1" relative="1" as="geometry">
            <mxPoint x="14" y="-11" as="offset" />
          </mxGeometry>
        </mxCell>
        <mxCell id="rTC_AdGIr1xHkLju1-tS-14" value="alt" style="shape=umlFrame;whiteSpace=wrap;html=1;pointerEvents=0;" parent="1" vertex="1">
          <mxGeometry x="-355" y="1690" width="775" height="90" as="geometry" />
        </mxCell>
        <mxCell id="rTC_AdGIr1xHkLju1-tS-16" value="[Already has a project]" style="text;html=1;align=center;verticalAlign=middle;resizable=0;points=[];autosize=1;strokeColor=none;fillColor=none;labelBackgroundColor=default;" parent="1" vertex="1">
          <mxGeometry x="-300" y="1690" width="140" height="30" as="geometry" />
        </mxCell>
        <mxCell id="rTC_AdGIr1xHkLju1-tS-17" value="" style="html=1;points=[];perimeter=orthogonalPerimeter;outlineConnect=0;targetShapes=umlLifeline;portConstraint=eastwest;newEdgeStyle={&quot;edgeStyle&quot;:&quot;elbowEdgeStyle&quot;,&quot;elbow&quot;:&quot;vertical&quot;,&quot;curved&quot;:0,&quot;rounded&quot;:0};" parent="1" vertex="1">
          <mxGeometry x="195" y="1640" width="10" height="40" as="geometry" />
        </mxCell>
        <mxCell id="rTC_AdGIr1xHkLju1-tS-18" value="getProject()" style="html=1;verticalAlign=bottom;endArrow=block;edgeStyle=elbowEdgeStyle;elbow=horizontal;curved=0;rounded=0;" parent="1" target="rTC_AdGIr1xHkLju1-tS-17" edge="1">
          <mxGeometry relative="1" as="geometry">
            <mxPoint x="-305" y="1660" as="sourcePoint" />
            <Array as="points">
              <mxPoint x="-205" y="1660" />
              <mxPoint x="115" y="1640" />
              <mxPoint x="-230" y="1650" />
            </Array>
            <mxPoint x="25" y="1660" as="targetPoint" />
            <mxPoint as="offset" />
          </mxGeometry>
        </mxCell>
        <mxCell id="rTC_AdGIr1xHkLju1-tS-20" value="loopOfficer()" style="html=1;verticalAlign=bottom;endArrow=block;edgeStyle=elbowEdgeStyle;elbow=horizontal;curved=0;rounded=0;" parent="1" source="VAy14Np7KbdLVpJw_eZG-9" target="rTC_AdGIr1xHkLju1-tS-19" edge="1">
          <mxGeometry relative="1" as="geometry">
            <mxPoint x="-300" y="1730" as="sourcePoint" />
            <Array as="points">
              <mxPoint x="-202.5" y="1730" />
              <mxPoint x="117.5" y="1710" />
              <mxPoint x="-227.5" y="1720" />
            </Array>
            <mxPoint x="350" y="1730" as="targetPoint" />
            <mxPoint as="offset" />
          </mxGeometry>
        </mxCell>
        <mxCell id="rTC_AdGIr1xHkLju1-tS-23" style="edgeStyle=elbowEdgeStyle;rounded=0;orthogonalLoop=1;jettySize=auto;html=1;elbow=horizontal;curved=0;" parent="1" edge="1">
          <mxGeometry relative="1" as="geometry">
            <mxPoint x="357.5" y="1756.9983870967742" as="sourcePoint" />
            <mxPoint x="-305" y="1756.9983870967742" as="targetPoint" />
          </mxGeometry>
        </mxCell>
        <mxCell id="rTC_AdGIr1xHkLju1-tS-25" value="allOption()" style="edgeLabel;html=1;align=center;verticalAlign=middle;resizable=0;points=[];" parent="rTC_AdGIr1xHkLju1-tS-23" vertex="1" connectable="0">
          <mxGeometry x="-0.0216" y="-1" relative="1" as="geometry">
            <mxPoint x="-8" y="-8" as="offset" />
          </mxGeometry>
        </mxCell>
        <mxCell id="rTC_AdGIr1xHkLju1-tS-26" value="prompts projectID" style="html=1;verticalAlign=bottom;endArrow=block;edgeStyle=elbowEdgeStyle;elbow=vertical;curved=0;rounded=0;" parent="1" edge="1">
          <mxGeometry x="0.0105" relative="1" as="geometry">
            <mxPoint x="-490" y="1809" as="sourcePoint" />
            <Array as="points">
              <mxPoint x="-435" y="1809" />
            </Array>
            <mxPoint x="-315" y="1809" as="targetPoint" />
            <mxPoint as="offset" />
          </mxGeometry>
        </mxCell>
        <mxCell id="rTC_AdGIr1xHkLju1-tS-29" value="nextLine()" style="html=1;verticalAlign=bottom;endArrow=block;edgeStyle=elbowEdgeStyle;elbow=vertical;curved=0;rounded=0;" parent="1" edge="1">
          <mxGeometry relative="1" as="geometry">
            <mxPoint x="-305" y="1809" as="sourcePoint" />
            <Array as="points">
              <mxPoint x="-120" y="1809" />
              <mxPoint x="200" y="1789" />
              <mxPoint x="-145" y="1799" />
            </Array>
            <mxPoint x="535" y="1809" as="targetPoint" />
            <mxPoint as="offset" />
          </mxGeometry>
        </mxCell>
        <mxCell id="rTC_AdGIr1xHkLju1-tS-32" value="" style="html=1;verticalAlign=bottom;labelBackgroundColor=none;endArrow=open;endFill=0;dashed=1;rounded=0;" parent="1" edge="1">
          <mxGeometry width="160" relative="1" as="geometry">
            <mxPoint x="535" y="1835.5" as="sourcePoint" />
            <mxPoint x="-305" y="1835.5" as="targetPoint" />
          </mxGeometry>
        </mxCell>
        <mxCell id="rTC_AdGIr1xHkLju1-tS-33" value="projectID" style="edgeLabel;html=1;align=center;verticalAlign=middle;resizable=0;points=[];" parent="rTC_AdGIr1xHkLju1-tS-32" vertex="1" connectable="0">
          <mxGeometry x="0.1177" y="1" relative="1" as="geometry">
            <mxPoint x="45" y="-11" as="offset" />
          </mxGeometry>
        </mxCell>
        <mxCell id="rTC_AdGIr1xHkLju1-tS-35" value="getInstance()" style="html=1;verticalAlign=bottom;endArrow=block;edgeStyle=elbowEdgeStyle;elbow=horizontal;curved=0;rounded=0;" parent="1" target="rTC_AdGIr1xHkLju1-tS-34" edge="1">
          <mxGeometry relative="1" as="geometry">
            <mxPoint x="-305" y="1870" as="sourcePoint" />
            <Array as="points">
              <mxPoint x="-205" y="1870" />
              <mxPoint x="115" y="1850" />
              <mxPoint x="-230" y="1860" />
            </Array>
            <mxPoint x="25" y="1870" as="targetPoint" />
            <mxPoint as="offset" />
          </mxGeometry>
        </mxCell>
        <mxCell id="rTC_AdGIr1xHkLju1-tS-36" value="" style="html=1;verticalAlign=bottom;labelBackgroundColor=none;endArrow=open;endFill=0;dashed=1;rounded=0;" parent="1" edge="1">
          <mxGeometry width="160" relative="1" as="geometry">
            <mxPoint x="715.0000000000005" y="1905" as="sourcePoint" />
            <mxPoint x="-305" y="1905" as="targetPoint" />
          </mxGeometry>
        </mxCell>
        <mxCell id="rTC_AdGIr1xHkLju1-tS-37" value="Instance of Projectlist" style="edgeLabel;html=1;align=center;verticalAlign=middle;resizable=0;points=[];" parent="rTC_AdGIr1xHkLju1-tS-36" vertex="1" connectable="0">
          <mxGeometry x="0.1177" y="1" relative="1" as="geometry">
            <mxPoint x="55" y="-11" as="offset" />
          </mxGeometry>
        </mxCell>
        <mxCell id="rTC_AdGIr1xHkLju1-tS-38" value="getByID(projectID)" style="html=1;verticalAlign=bottom;endArrow=block;edgeStyle=elbowEdgeStyle;elbow=horizontal;curved=0;rounded=0;" parent="1" target="rTC_AdGIr1xHkLju1-tS-34" edge="1">
          <mxGeometry relative="1" as="geometry">
            <mxPoint x="-305" y="1940" as="sourcePoint" />
            <Array as="points">
              <mxPoint x="-205" y="1940" />
              <mxPoint x="115" y="1920" />
              <mxPoint x="-230" y="1930" />
            </Array>
            <mxPoint x="25" y="1940" as="targetPoint" />
            <mxPoint as="offset" />
          </mxGeometry>
        </mxCell>
        <mxCell id="rTC_AdGIr1xHkLju1-tS-39" value="" style="html=1;verticalAlign=bottom;labelBackgroundColor=none;endArrow=open;endFill=0;dashed=1;rounded=0;" parent="1" source="rTC_AdGIr1xHkLju1-tS-34" edge="1">
          <mxGeometry width="160" relative="1" as="geometry">
            <mxPoint x="25" y="1970" as="sourcePoint" />
            <mxPoint x="-305" y="1970" as="targetPoint" />
          </mxGeometry>
        </mxCell>
        <mxCell id="rTC_AdGIr1xHkLju1-tS-40" value="Project" style="edgeLabel;html=1;align=center;verticalAlign=middle;resizable=0;points=[];" parent="rTC_AdGIr1xHkLju1-tS-39" vertex="1" connectable="0">
          <mxGeometry x="0.1177" y="1" relative="1" as="geometry">
            <mxPoint x="55" y="-11" as="offset" />
          </mxGeometry>
        </mxCell>
        <mxCell id="rTC_AdGIr1xHkLju1-tS-42" value="alt" style="shape=umlFrame;whiteSpace=wrap;html=1;pointerEvents=0;" parent="1" vertex="1">
          <mxGeometry x="-350" y="1990" width="1320" height="160" as="geometry" />
        </mxCell>
        <mxCell id="rTC_AdGIr1xHkLju1-tS-43" value="[ProjectID is exist and user is eligible to apply the project]" style="text;html=1;align=center;verticalAlign=middle;resizable=0;points=[];autosize=1;strokeColor=none;fillColor=none;labelBackgroundColor=default;" parent="1" vertex="1">
          <mxGeometry x="-300" y="1990" width="330" height="30" as="geometry" />
        </mxCell>
        <mxCell id="rTC_AdGIr1xHkLju1-tS-44" value="" style="html=1;points=[];perimeter=orthogonalPerimeter;outlineConnect=0;targetShapes=umlLifeline;portConstraint=eastwest;newEdgeStyle={&quot;edgeStyle&quot;:&quot;elbowEdgeStyle&quot;,&quot;elbow&quot;:&quot;vertical&quot;,&quot;curved&quot;:0,&quot;rounded&quot;:0};" parent="1" vertex="1">
          <mxGeometry x="535" y="2020" width="10" height="55" as="geometry" />
        </mxCell>
        <mxCell id="rTC_AdGIr1xHkLju1-tS-49" value="nextInt()" style="html=1;verticalAlign=bottom;endArrow=block;edgeStyle=elbowEdgeStyle;elbow=horizontal;curved=0;rounded=0;" parent="1" source="VAy14Np7KbdLVpJw_eZG-9" target="rTC_AdGIr1xHkLju1-tS-44" edge="1">
          <mxGeometry relative="1" as="geometry">
            <mxPoint x="-303" y="2040" as="sourcePoint" />
            <Array as="points">
              <mxPoint x="-200.5" y="2040" />
              <mxPoint x="119.5" y="2020" />
              <mxPoint x="-225.5" y="2030" />
            </Array>
            <mxPoint x="360" y="2040" as="targetPoint" />
            <mxPoint as="offset" />
          </mxGeometry>
        </mxCell>
        <mxCell id="rTC_AdGIr1xHkLju1-tS-50" value="" style="html=1;verticalAlign=bottom;labelBackgroundColor=none;endArrow=open;endFill=0;dashed=1;rounded=0;" parent="1" edge="1">
          <mxGeometry width="160" relative="1" as="geometry">
            <mxPoint x="535" y="2060" as="sourcePoint" />
            <mxPoint x="-305" y="2060" as="targetPoint" />
          </mxGeometry>
        </mxCell>
        <mxCell id="rTC_AdGIr1xHkLju1-tS-51" value="applyFlat" style="edgeLabel;html=1;align=center;verticalAlign=middle;resizable=0;points=[];" parent="rTC_AdGIr1xHkLju1-tS-50" vertex="1" connectable="0">
          <mxGeometry x="0.1177" y="1" relative="1" as="geometry">
            <mxPoint x="45" y="-11" as="offset" />
          </mxGeometry>
        </mxCell>
        <mxCell id="rTC_AdGIr1xHkLju1-tS-52" value="prompts flat type" style="html=1;verticalAlign=bottom;endArrow=block;edgeStyle=elbowEdgeStyle;elbow=vertical;curved=0;rounded=0;" parent="1" edge="1">
          <mxGeometry x="0.0105" relative="1" as="geometry">
            <mxPoint x="-490" y="2039.47" as="sourcePoint" />
            <Array as="points">
              <mxPoint x="-435" y="2039.47" />
            </Array>
            <mxPoint x="-315" y="2039.47" as="targetPoint" />
            <mxPoint as="offset" />
          </mxGeometry>
        </mxCell>
        <mxCell id="rTC_AdGIr1xHkLju1-tS-53" value="applyProject(projectID, applyFlat)" style="html=1;verticalAlign=bottom;endArrow=block;edgeStyle=elbowEdgeStyle;elbow=horizontal;curved=0;rounded=0;" parent="1" target="rTC_AdGIr1xHkLju1-tS-54" edge="1">
          <mxGeometry relative="1" as="geometry">
            <mxPoint x="-305" y="2110" as="sourcePoint" />
            <Array as="points">
              <mxPoint x="-200.5" y="2110" />
              <mxPoint x="119.5" y="2090" />
              <mxPoint x="-225.5" y="2100" />
            </Array>
            <mxPoint x="535" y="2110" as="targetPoint" />
            <mxPoint as="offset" />
          </mxGeometry>
        </mxCell>
        <mxCell id="rTC_AdGIr1xHkLju1-tS-127" value=":ApplicantList" style="shape=umlLifeline;perimeter=lifelinePerimeter;whiteSpace=wrap;html=1;container=0;dropTarget=0;collapsible=0;recursiveResize=0;outlineConnect=0;portConstraint=eastwest;newEdgeStyle={&quot;edgeStyle&quot;:&quot;elbowEdgeStyle&quot;,&quot;elbow&quot;:&quot;vertical&quot;,&quot;curved&quot;:0,&quot;rounded&quot;:0};" parent="1" vertex="1">
          <mxGeometry x="-220" y="2365" width="160" height="1235" as="geometry" />
        </mxCell>
        <mxCell id="rTC_AdGIr1xHkLju1-tS-129" value="applicant: Applicant" style="shape=umlLifeline;perimeter=lifelinePerimeter;whiteSpace=wrap;html=1;container=0;dropTarget=0;collapsible=0;recursiveResize=0;outlineConnect=0;portConstraint=eastwest;newEdgeStyle={&quot;edgeStyle&quot;:&quot;elbowEdgeStyle&quot;,&quot;elbow&quot;:&quot;vertical&quot;,&quot;curved&quot;:0,&quot;rounded&quot;:0};" parent="1" vertex="1">
          <mxGeometry x="-50" y="2365" width="160" height="1235" as="geometry" />
        </mxCell>
        <mxCell id="zTZguuECv99ucqXTBtya-36" value="" style="html=1;points=[];perimeter=orthogonalPerimeter;outlineConnect=0;targetShapes=umlLifeline;portConstraint=eastwest;newEdgeStyle={&quot;edgeStyle&quot;:&quot;elbowEdgeStyle&quot;,&quot;elbow&quot;:&quot;vertical&quot;,&quot;curved&quot;:0,&quot;rounded&quot;:0};" vertex="1" parent="rTC_AdGIr1xHkLju1-tS-129">
          <mxGeometry x="75" y="765" width="10" height="95" as="geometry" />
        </mxCell>
        <mxCell id="rTC_AdGIr1xHkLju1-tS-131" value="console" style="shape=umlLifeline;perimeter=lifelinePerimeter;whiteSpace=wrap;html=1;container=0;dropTarget=0;collapsible=0;recursiveResize=0;outlineConnect=0;portConstraint=eastwest;newEdgeStyle={&quot;edgeStyle&quot;:&quot;elbowEdgeStyle&quot;,&quot;elbow&quot;:&quot;vertical&quot;,&quot;curved&quot;:0,&quot;rounded&quot;:0};" parent="1" vertex="1">
          <mxGeometry x="130" y="2365" width="140" height="1235" as="geometry" />
        </mxCell>
        <mxCell id="zTZguuECv99ucqXTBtya-29" value="" style="html=1;points=[];perimeter=orthogonalPerimeter;outlineConnect=0;targetShapes=umlLifeline;portConstraint=eastwest;newEdgeStyle={&quot;edgeStyle&quot;:&quot;elbowEdgeStyle&quot;,&quot;elbow&quot;:&quot;vertical&quot;,&quot;curved&quot;:0,&quot;rounded&quot;:0};" vertex="1" parent="rTC_AdGIr1xHkLju1-tS-131">
          <mxGeometry x="65.5" y="685" width="10" height="42.5" as="geometry" />
        </mxCell>
        <mxCell id="zTZguuECv99ucqXTBtya-30" style="edgeStyle=elbowEdgeStyle;rounded=0;orthogonalLoop=1;jettySize=auto;html=1;elbow=vertical;curved=0;" edge="1" parent="rTC_AdGIr1xHkLju1-tS-131">
          <mxGeometry relative="1" as="geometry">
            <mxPoint x="65.5" y="708.4913793103451" as="sourcePoint" />
            <mxPoint x="-432" y="708.2483870967744" as="targetPoint" />
          </mxGeometry>
        </mxCell>
        <mxCell id="zTZguuECv99ucqXTBtya-31" value="print(&quot;There is no available unit of this flat type in this project.&quot;)" style="edgeLabel;html=1;align=center;verticalAlign=middle;resizable=0;points=[];" vertex="1" connectable="0" parent="zTZguuECv99ucqXTBtya-30">
          <mxGeometry x="-0.0216" y="-1" relative="1" as="geometry">
            <mxPoint x="-8" y="-8" as="offset" />
          </mxGeometry>
        </mxCell>
        <mxCell id="zTZguuECv99ucqXTBtya-60" value="" style="html=1;points=[];perimeter=orthogonalPerimeter;outlineConnect=0;targetShapes=umlLifeline;portConstraint=eastwest;newEdgeStyle={&quot;edgeStyle&quot;:&quot;elbowEdgeStyle&quot;,&quot;elbow&quot;:&quot;vertical&quot;,&quot;curved&quot;:0,&quot;rounded&quot;:0};" vertex="1" parent="rTC_AdGIr1xHkLju1-tS-131">
          <mxGeometry x="65" y="1115" width="10" height="42.5" as="geometry" />
        </mxCell>
        <mxCell id="rTC_AdGIr1xHkLju1-tS-132" value="Apply project&amp;nbsp;" style="shape=umlFrame;whiteSpace=wrap;html=1;pointerEvents=0;width=180;height=30;" parent="1" vertex="1">
          <mxGeometry x="-580" y="2320" width="1610" height="1310" as="geometry" />
        </mxCell>
        <mxCell id="rTC_AdGIr1xHkLju1-tS-133" value="" style="edgeStyle=orthogonalEdgeStyle;rounded=0;orthogonalLoop=1;jettySize=auto;html=1;" parent="1" target="rTC_AdGIr1xHkLju1-tS-135" edge="1">
          <mxGeometry relative="1" as="geometry">
            <mxPoint x="-495" y="2440" as="sourcePoint" />
            <Array as="points">
              <mxPoint x="-495" y="2490" />
              <mxPoint x="-495" y="2490" />
            </Array>
          </mxGeometry>
        </mxCell>
        <mxCell id="rTC_AdGIr1xHkLju1-tS-134" value="OfficerPage/ ApplicantPage" style="shape=umlActor;verticalLabelPosition=bottom;verticalAlign=top;html=1;outlineConnect=0;" parent="1" vertex="1">
          <mxGeometry x="-510" y="2360" width="30" height="60" as="geometry" />
        </mxCell>
        <mxCell id="rTC_AdGIr1xHkLju1-tS-135" value="" style="html=1;points=[[0,0,0,0,5],[0,1,0,0,-5],[1,0,0,0,5],[1,1,0,0,-5]];perimeter=orthogonalPerimeter;outlineConnect=0;targetShapes=umlLifeline;portConstraint=eastwest;newEdgeStyle={&quot;curved&quot;:0,&quot;rounded&quot;:0};" parent="1" vertex="1">
          <mxGeometry x="-500" y="2460" width="10" height="1140" as="geometry" />
        </mxCell>
        <mxCell id="rTC_AdGIr1xHkLju1-tS-136" value=":ApplicantController" style="shape=umlLifeline;perimeter=lifelinePerimeter;whiteSpace=wrap;html=1;container=0;dropTarget=0;collapsible=0;recursiveResize=0;outlineConnect=0;portConstraint=eastwest;newEdgeStyle={&quot;edgeStyle&quot;:&quot;elbowEdgeStyle&quot;,&quot;elbow&quot;:&quot;vertical&quot;,&quot;curved&quot;:0,&quot;rounded&quot;:0};" parent="1" vertex="1">
          <mxGeometry x="-380" y="2365" width="140" height="1235" as="geometry" />
        </mxCell>
        <mxCell id="rTC_AdGIr1xHkLju1-tS-137" value="" style="html=1;points=[];perimeter=orthogonalPerimeter;outlineConnect=0;targetShapes=umlLifeline;portConstraint=eastwest;newEdgeStyle={&quot;edgeStyle&quot;:&quot;elbowEdgeStyle&quot;,&quot;elbow&quot;:&quot;vertical&quot;,&quot;curved&quot;:0,&quot;rounded&quot;:0};" parent="rTC_AdGIr1xHkLju1-tS-136" vertex="1">
          <mxGeometry x="65" y="80" width="10" height="1100" as="geometry" />
        </mxCell>
        <mxCell id="zTZguuECv99ucqXTBtya-15" value="" style="endArrow=classic;html=1;rounded=0;" edge="1" parent="rTC_AdGIr1xHkLju1-tS-136">
          <mxGeometry width="50" height="50" relative="1" as="geometry">
            <mxPoint x="75" y="549" as="sourcePoint" />
            <mxPoint x="75" y="579" as="targetPoint" />
            <Array as="points">
              <mxPoint x="110" y="549" />
              <mxPoint x="110" y="579" />
            </Array>
          </mxGeometry>
        </mxCell>
        <mxCell id="zTZguuECv99ucqXTBtya-16" value="checkApplicable(projectID)" style="edgeLabel;html=1;align=center;verticalAlign=middle;resizable=0;points=[];" vertex="1" connectable="0" parent="zTZguuECv99ucqXTBtya-15">
          <mxGeometry x="-0.0533" y="-1" relative="1" as="geometry">
            <mxPoint x="81" as="offset" />
          </mxGeometry>
        </mxCell>
        <mxCell id="rTC_AdGIr1xHkLju1-tS-138" value="applyProject(ProjectID, applyFlat)" style="html=1;verticalAlign=bottom;endArrow=block;edgeStyle=elbowEdgeStyle;elbow=vertical;curved=0;rounded=0;" parent="1" edge="1">
          <mxGeometry x="0.0286" y="10" relative="1" as="geometry">
            <mxPoint x="-490" y="2490" as="sourcePoint" />
            <Array as="points">
              <mxPoint x="-435" y="2490" />
            </Array>
            <mxPoint x="-315" y="2490" as="targetPoint" />
            <mxPoint as="offset" />
          </mxGeometry>
        </mxCell>
        <mxCell id="rTC_AdGIr1xHkLju1-tS-148" value=":RequestList" style="shape=umlLifeline;perimeter=lifelinePerimeter;whiteSpace=wrap;html=1;container=0;dropTarget=0;collapsible=0;recursiveResize=0;outlineConnect=0;portConstraint=eastwest;newEdgeStyle={&quot;edgeStyle&quot;:&quot;elbowEdgeStyle&quot;,&quot;elbow&quot;:&quot;vertical&quot;,&quot;curved&quot;:0,&quot;rounded&quot;:0};" parent="1" vertex="1">
          <mxGeometry x="500" y="2365" width="160" height="1235" as="geometry" />
        </mxCell>
        <mxCell id="zTZguuECv99ucqXTBtya-45" value="" style="html=1;points=[];perimeter=orthogonalPerimeter;outlineConnect=0;targetShapes=umlLifeline;portConstraint=eastwest;newEdgeStyle={&quot;edgeStyle&quot;:&quot;elbowEdgeStyle&quot;,&quot;elbow&quot;:&quot;vertical&quot;,&quot;curved&quot;:0,&quot;rounded&quot;:0};" vertex="1" parent="rTC_AdGIr1xHkLju1-tS-148">
          <mxGeometry x="75" y="935" width="15" height="195" as="geometry" />
        </mxCell>
        <mxCell id="rTC_AdGIr1xHkLju1-tS-150" value=":ProjectList" style="shape=umlLifeline;perimeter=lifelinePerimeter;whiteSpace=wrap;html=1;container=0;dropTarget=0;collapsible=0;recursiveResize=0;outlineConnect=0;portConstraint=eastwest;newEdgeStyle={&quot;edgeStyle&quot;:&quot;elbowEdgeStyle&quot;,&quot;elbow&quot;:&quot;vertical&quot;,&quot;curved&quot;:0,&quot;rounded&quot;:0};" parent="1" vertex="1">
          <mxGeometry x="310" y="2365" width="160" height="1235" as="geometry" />
        </mxCell>
        <mxCell id="rTC_AdGIr1xHkLju1-tS-151" value="" style="html=1;points=[];perimeter=orthogonalPerimeter;outlineConnect=0;targetShapes=umlLifeline;portConstraint=eastwest;newEdgeStyle={&quot;edgeStyle&quot;:&quot;elbowEdgeStyle&quot;,&quot;elbow&quot;:&quot;vertical&quot;,&quot;curved&quot;:0,&quot;rounded&quot;:0};" parent="rTC_AdGIr1xHkLju1-tS-150" vertex="1">
          <mxGeometry x="75" y="411.13" width="10" height="126.25" as="geometry" />
        </mxCell>
        <mxCell id="rTC_AdGIr1xHkLju1-tS-154" value="getInstance()" style="html=1;verticalAlign=bottom;endArrow=block;edgeStyle=elbowEdgeStyle;elbow=horizontal;curved=0;rounded=0;" parent="1" edge="1">
          <mxGeometry relative="1" as="geometry">
            <mxPoint x="-304.9999999999998" y="2516.0000000000005" as="sourcePoint" />
            <Array as="points">
              <mxPoint x="-205" y="2516" />
              <mxPoint x="115" y="2496" />
              <mxPoint x="-230" y="2506" />
            </Array>
            <mxPoint x="-144.99999999999977" y="2516.0000000000005" as="targetPoint" />
            <mxPoint as="offset" />
          </mxGeometry>
        </mxCell>
        <mxCell id="rTC_AdGIr1xHkLju1-tS-155" value="" style="html=1;verticalAlign=bottom;labelBackgroundColor=none;endArrow=open;endFill=0;dashed=1;rounded=0;" parent="1" edge="1">
          <mxGeometry width="160" relative="1" as="geometry">
            <mxPoint x="-144.99999999999977" y="2543.5000000000005" as="sourcePoint" />
            <mxPoint x="-304.9999999999998" y="2543.5000000000005" as="targetPoint" />
          </mxGeometry>
        </mxCell>
        <mxCell id="rTC_AdGIr1xHkLju1-tS-156" value="Instance of Applicant list" style="edgeLabel;html=1;align=center;verticalAlign=middle;resizable=0;points=[];" parent="rTC_AdGIr1xHkLju1-tS-155" vertex="1" connectable="0">
          <mxGeometry x="0.1177" y="1" relative="1" as="geometry">
            <mxPoint x="14" y="-11" as="offset" />
          </mxGeometry>
        </mxCell>
        <mxCell id="rTC_AdGIr1xHkLju1-tS-157" value="getByID(userID)" style="html=1;verticalAlign=bottom;endArrow=block;elbow=horizontal;rounded=0;entryX=0.363;entryY=0.633;entryDx=0;entryDy=0;entryPerimeter=0;" parent="1" edge="1">
          <mxGeometry relative="1" as="geometry">
            <mxPoint x="-304.9999999999998" y="2572.455" as="sourcePoint" />
            <mxPoint x="-141.36999999999966" y="2572.455" as="targetPoint" />
            <mxPoint as="offset" />
          </mxGeometry>
        </mxCell>
        <mxCell id="rTC_AdGIr1xHkLju1-tS-158" value="" style="html=1;verticalAlign=bottom;labelBackgroundColor=none;endArrow=open;endFill=0;dashed=1;rounded=0;" parent="1" edge="1">
          <mxGeometry width="160" relative="1" as="geometry">
            <mxPoint x="-144.99999999999977" y="2600.5000000000005" as="sourcePoint" />
            <mxPoint x="-304.9999999999998" y="2600.5000000000005" as="targetPoint" />
          </mxGeometry>
        </mxCell>
        <mxCell id="rTC_AdGIr1xHkLju1-tS-159" value="applicant" style="edgeLabel;html=1;align=center;verticalAlign=middle;resizable=0;points=[];" parent="rTC_AdGIr1xHkLju1-tS-158" vertex="1" connectable="0">
          <mxGeometry x="0.1177" y="1" relative="1" as="geometry">
            <mxPoint x="14" y="-11" as="offset" />
          </mxGeometry>
        </mxCell>
        <mxCell id="rTC_AdGIr1xHkLju1-tS-160" value="alt" style="shape=umlFrame;whiteSpace=wrap;html=1;pointerEvents=0;" parent="1" vertex="1">
          <mxGeometry x="-357.5" y="2680" width="587.5" height="80" as="geometry" />
        </mxCell>
        <mxCell id="rTC_AdGIr1xHkLju1-tS-162" value="" style="html=1;points=[];perimeter=orthogonalPerimeter;outlineConnect=0;targetShapes=umlLifeline;portConstraint=eastwest;newEdgeStyle={&quot;edgeStyle&quot;:&quot;elbowEdgeStyle&quot;,&quot;elbow&quot;:&quot;vertical&quot;,&quot;curved&quot;:0,&quot;rounded&quot;:0};" parent="1" vertex="1">
          <mxGeometry x="25" y="2630" width="10" height="40" as="geometry" />
        </mxCell>
        <mxCell id="rTC_AdGIr1xHkLju1-tS-163" value="getProject()" style="html=1;verticalAlign=bottom;endArrow=block;elbow=horizontal;rounded=0;" parent="1" edge="1">
          <mxGeometry relative="1" as="geometry">
            <mxPoint x="-305" y="2650" as="sourcePoint" />
            <mxPoint x="25" y="2650" as="targetPoint" />
            <mxPoint as="offset" />
          </mxGeometry>
        </mxCell>
        <mxCell id="rTC_AdGIr1xHkLju1-tS-171" value="getInstance()" style="html=1;verticalAlign=bottom;endArrow=block;edgeStyle=elbowEdgeStyle;elbow=horizontal;curved=0;rounded=0;" parent="1" target="rTC_AdGIr1xHkLju1-tS-151" edge="1">
          <mxGeometry x="-0.029" y="3" relative="1" as="geometry">
            <mxPoint x="-305" y="2793" as="sourcePoint" />
            <Array as="points">
              <mxPoint x="-205" y="2793" />
              <mxPoint x="115" y="2773" />
              <mxPoint x="-230" y="2783" />
            </Array>
            <mxPoint x="25" y="2793" as="targetPoint" />
            <mxPoint as="offset" />
          </mxGeometry>
        </mxCell>
        <mxCell id="rTC_AdGIr1xHkLju1-tS-172" value="" style="html=1;verticalAlign=bottom;labelBackgroundColor=none;endArrow=open;endFill=0;dashed=1;rounded=0;" parent="1" edge="1">
          <mxGeometry width="160" relative="1" as="geometry">
            <mxPoint x="385" y="2827.255" as="sourcePoint" />
            <mxPoint x="-305" y="2827.255" as="targetPoint" />
          </mxGeometry>
        </mxCell>
        <mxCell id="rTC_AdGIr1xHkLju1-tS-173" value="Instance of Projectlist" style="edgeLabel;html=1;align=center;verticalAlign=middle;resizable=0;points=[];" parent="rTC_AdGIr1xHkLju1-tS-172" vertex="1" connectable="0">
          <mxGeometry x="0.1177" y="1" relative="1" as="geometry">
            <mxPoint x="36" y="-11" as="offset" />
          </mxGeometry>
        </mxCell>
        <mxCell id="rTC_AdGIr1xHkLju1-tS-174" value="getByID(projectID)" style="html=1;verticalAlign=bottom;endArrow=block;edgeStyle=elbowEdgeStyle;elbow=horizontal;curved=0;rounded=0;" parent="1" target="rTC_AdGIr1xHkLju1-tS-151" edge="1">
          <mxGeometry x="-0.029" y="3" relative="1" as="geometry">
            <mxPoint x="-305" y="2863" as="sourcePoint" />
            <Array as="points">
              <mxPoint x="-205" y="2863" />
              <mxPoint x="115" y="2843" />
              <mxPoint x="-230" y="2853" />
            </Array>
            <mxPoint x="25" y="2863" as="targetPoint" />
            <mxPoint as="offset" />
          </mxGeometry>
        </mxCell>
        <mxCell id="rTC_AdGIr1xHkLju1-tS-175" value="" style="html=1;verticalAlign=bottom;labelBackgroundColor=none;endArrow=open;endFill=0;dashed=1;rounded=0;" parent="1" source="rTC_AdGIr1xHkLju1-tS-151" edge="1">
          <mxGeometry width="160" relative="1" as="geometry">
            <mxPoint x="25" y="2893" as="sourcePoint" />
            <mxPoint x="-305" y="2893" as="targetPoint" />
          </mxGeometry>
        </mxCell>
        <mxCell id="rTC_AdGIr1xHkLju1-tS-176" value="Project" style="edgeLabel;html=1;align=center;verticalAlign=middle;resizable=0;points=[];" parent="rTC_AdGIr1xHkLju1-tS-175" vertex="1" connectable="0">
          <mxGeometry x="0.1177" y="1" relative="1" as="geometry">
            <mxPoint x="31" y="-14" as="offset" />
          </mxGeometry>
        </mxCell>
        <mxCell id="rTC_AdGIr1xHkLju1-tS-130" value="" style="html=1;points=[];perimeter=orthogonalPerimeter;outlineConnect=0;targetShapes=umlLifeline;portConstraint=eastwest;newEdgeStyle={&quot;edgeStyle&quot;:&quot;elbowEdgeStyle&quot;,&quot;elbow&quot;:&quot;vertical&quot;,&quot;curved&quot;:0,&quot;rounded&quot;:0};" parent="1" vertex="1">
          <mxGeometry x="-145" y="2490" width="10" height="135" as="geometry" />
        </mxCell>
        <mxCell id="zTZguuECv99ucqXTBtya-1" value="[Already has a project]" style="text;html=1;align=center;verticalAlign=middle;resizable=0;points=[];autosize=1;strokeColor=none;fillColor=none;labelBackgroundColor=default;" vertex="1" parent="1">
          <mxGeometry x="-300" y="2680" width="140" height="30" as="geometry" />
        </mxCell>
        <mxCell id="zTZguuECv99ucqXTBtya-2" value="" style="html=1;points=[];perimeter=orthogonalPerimeter;outlineConnect=0;targetShapes=umlLifeline;portConstraint=eastwest;newEdgeStyle={&quot;edgeStyle&quot;:&quot;elbowEdgeStyle&quot;,&quot;elbow&quot;:&quot;vertical&quot;,&quot;curved&quot;:0,&quot;rounded&quot;:0};" vertex="1" parent="1">
          <mxGeometry x="195" y="2702.75" width="10" height="42.5" as="geometry" />
        </mxCell>
        <mxCell id="zTZguuECv99ucqXTBtya-5" style="edgeStyle=elbowEdgeStyle;rounded=0;orthogonalLoop=1;jettySize=auto;html=1;elbow=vertical;curved=0;" edge="1" parent="1">
          <mxGeometry relative="1" as="geometry">
            <mxPoint x="195" y="2726.241379310345" as="sourcePoint" />
            <mxPoint x="-302.5" y="2725.9983870967744" as="targetPoint" />
          </mxGeometry>
        </mxCell>
        <mxCell id="zTZguuECv99ucqXTBtya-6" value="print(&quot;You are allowed to apply for only one project.&quot;)" style="edgeLabel;html=1;align=center;verticalAlign=middle;resizable=0;points=[];" vertex="1" connectable="0" parent="zTZguuECv99ucqXTBtya-5">
          <mxGeometry x="-0.0216" y="-1" relative="1" as="geometry">
            <mxPoint x="-8" y="-8" as="offset" />
          </mxGeometry>
        </mxCell>
        <mxCell id="zTZguuECv99ucqXTBtya-11" value="" style="html=1;verticalAlign=bottom;labelBackgroundColor=none;endArrow=open;endFill=0;dashed=1;rounded=0;" edge="1" parent="1">
          <mxGeometry width="160" relative="1" as="geometry">
            <mxPoint x="-315" y="2727" as="sourcePoint" />
            <mxPoint x="-490" y="2727" as="targetPoint" />
          </mxGeometry>
        </mxCell>
        <mxCell id="zTZguuECv99ucqXTBtya-12" value="return" style="edgeLabel;html=1;align=center;verticalAlign=middle;resizable=0;points=[];" vertex="1" connectable="0" parent="zTZguuECv99ucqXTBtya-11">
          <mxGeometry x="0.1177" y="1" relative="1" as="geometry">
            <mxPoint x="14" y="-11" as="offset" />
          </mxGeometry>
        </mxCell>
        <mxCell id="zTZguuECv99ucqXTBtya-13" value="alt" style="shape=umlFrame;whiteSpace=wrap;html=1;pointerEvents=0;" vertex="1" parent="1">
          <mxGeometry x="-355" y="2960" width="615" height="150" as="geometry" />
        </mxCell>
        <mxCell id="zTZguuECv99ucqXTBtya-17" value="[Cannot Apply Project]" style="text;html=1;align=center;verticalAlign=middle;resizable=0;points=[];autosize=1;strokeColor=none;fillColor=none;labelBackgroundColor=default;" vertex="1" parent="1">
          <mxGeometry x="-300" y="2960" width="140" height="30" as="geometry" />
        </mxCell>
        <mxCell id="zTZguuECv99ucqXTBtya-21" value="" style="html=1;points=[];perimeter=orthogonalPerimeter;outlineConnect=0;targetShapes=umlLifeline;portConstraint=eastwest;newEdgeStyle={&quot;edgeStyle&quot;:&quot;elbowEdgeStyle&quot;,&quot;elbow&quot;:&quot;vertical&quot;,&quot;curved&quot;:0,&quot;rounded&quot;:0};" vertex="1" parent="1">
          <mxGeometry x="195" y="2982.75" width="10" height="42.5" as="geometry" />
        </mxCell>
        <mxCell id="zTZguuECv99ucqXTBtya-22" style="edgeStyle=elbowEdgeStyle;rounded=0;orthogonalLoop=1;jettySize=auto;html=1;elbow=vertical;curved=0;" edge="1" parent="1">
          <mxGeometry relative="1" as="geometry">
            <mxPoint x="195" y="3006.241379310345" as="sourcePoint" />
            <mxPoint x="-302.5" y="3005.9983870967744" as="targetPoint" />
          </mxGeometry>
        </mxCell>
        <mxCell id="zTZguuECv99ucqXTBtya-23" value="print(&quot;You are not allowed to apply for this project.&quot;)" style="edgeLabel;html=1;align=center;verticalAlign=middle;resizable=0;points=[];" vertex="1" connectable="0" parent="zTZguuECv99ucqXTBtya-22">
          <mxGeometry x="-0.0216" y="-1" relative="1" as="geometry">
            <mxPoint x="-8" y="-8" as="offset" />
          </mxGeometry>
        </mxCell>
        <mxCell id="zTZguuECv99ucqXTBtya-25" value="[No available flat type ]" style="text;html=1;align=center;verticalAlign=middle;resizable=0;points=[];autosize=1;strokeColor=none;fillColor=none;labelBackgroundColor=default;" vertex="1" parent="1">
          <mxGeometry x="-300" y="3025.25" width="140" height="30" as="geometry" />
        </mxCell>
        <mxCell id="zTZguuECv99ucqXTBtya-32" value="" style="html=1;verticalAlign=bottom;labelBackgroundColor=none;endArrow=open;endFill=0;dashed=1;rounded=0;" edge="1" parent="1">
          <mxGeometry width="160" relative="1" as="geometry">
            <mxPoint x="-315" y="3003.41" as="sourcePoint" />
            <mxPoint x="-490" y="3003.41" as="targetPoint" />
          </mxGeometry>
        </mxCell>
        <mxCell id="zTZguuECv99ucqXTBtya-33" value="return" style="edgeLabel;html=1;align=center;verticalAlign=middle;resizable=0;points=[];" vertex="1" connectable="0" parent="zTZguuECv99ucqXTBtya-32">
          <mxGeometry x="0.1177" y="1" relative="1" as="geometry">
            <mxPoint x="14" y="-11" as="offset" />
          </mxGeometry>
        </mxCell>
        <mxCell id="zTZguuECv99ucqXTBtya-34" value="" style="html=1;verticalAlign=bottom;labelBackgroundColor=none;endArrow=open;endFill=0;dashed=1;rounded=0;" edge="1" parent="1">
          <mxGeometry width="160" relative="1" as="geometry">
            <mxPoint x="-315" y="3073.66" as="sourcePoint" />
            <mxPoint x="-490" y="3073.66" as="targetPoint" />
          </mxGeometry>
        </mxCell>
        <mxCell id="zTZguuECv99ucqXTBtya-35" value="return" style="edgeLabel;html=1;align=center;verticalAlign=middle;resizable=0;points=[];" vertex="1" connectable="0" parent="zTZguuECv99ucqXTBtya-34">
          <mxGeometry x="0.1177" y="1" relative="1" as="geometry">
            <mxPoint x="14" y="-11" as="offset" />
          </mxGeometry>
        </mxCell>
        <mxCell id="zTZguuECv99ucqXTBtya-37" value="setAppliedFlatByID(projectID, applyFlat)" style="html=1;verticalAlign=bottom;endArrow=block;edgeStyle=elbowEdgeStyle;elbow=horizontal;curved=0;rounded=0;" edge="1" parent="1" target="zTZguuECv99ucqXTBtya-36">
          <mxGeometry relative="1" as="geometry">
            <mxPoint x="-304.9999999999998" y="3150.0000000000005" as="sourcePoint" />
            <Array as="points">
              <mxPoint x="-205" y="3150" />
              <mxPoint x="115" y="3130" />
              <mxPoint x="-230" y="3140" />
            </Array>
            <mxPoint x="-144.99999999999977" y="3150.0000000000005" as="targetPoint" />
            <mxPoint as="offset" />
          </mxGeometry>
        </mxCell>
        <mxCell id="zTZguuECv99ucqXTBtya-38" value="setProject(projectID)" style="html=1;verticalAlign=bottom;endArrow=block;edgeStyle=elbowEdgeStyle;elbow=horizontal;curved=0;rounded=0;" edge="1" parent="1">
          <mxGeometry relative="1" as="geometry">
            <mxPoint x="-304.9999999999998" y="3180.0000000000005" as="sourcePoint" />
            <Array as="points">
              <mxPoint x="-205" y="3180" />
              <mxPoint x="115" y="3160" />
              <mxPoint x="-230" y="3170" />
            </Array>
            <mxPoint x="25" y="3180" as="targetPoint" />
            <mxPoint as="offset" />
          </mxGeometry>
        </mxCell>
        <mxCell id="zTZguuECv99ucqXTBtya-39" value="setApplicationStatusByID(projectID, ApplicationStatus.PENDING)" style="html=1;verticalAlign=bottom;endArrow=block;edgeStyle=elbowEdgeStyle;elbow=horizontal;curved=0;rounded=0;" edge="1" parent="1">
          <mxGeometry relative="1" as="geometry">
            <mxPoint x="-304.9999999999998" y="3210.0000000000005" as="sourcePoint" />
            <Array as="points">
              <mxPoint x="-205" y="3210" />
              <mxPoint x="115" y="3190" />
              <mxPoint x="-230" y="3200" />
            </Array>
            <mxPoint x="25" y="3210" as="targetPoint" />
            <mxPoint as="offset" />
          </mxGeometry>
        </mxCell>
        <mxCell id="zTZguuECv99ucqXTBtya-41" value="" style="html=1;points=[];perimeter=orthogonalPerimeter;outlineConnect=0;targetShapes=umlLifeline;portConstraint=eastwest;newEdgeStyle={&quot;edgeStyle&quot;:&quot;elbowEdgeStyle&quot;,&quot;elbow&quot;:&quot;vertical&quot;,&quot;curved&quot;:0,&quot;rounded&quot;:0};" vertex="1" parent="1">
          <mxGeometry x="-145" y="3238" width="10" height="55" as="geometry" />
        </mxCell>
        <mxCell id="zTZguuECv99ucqXTBtya-42" value="update(applicantID, applicant)" style="html=1;verticalAlign=bottom;endArrow=block;edgeStyle=elbowEdgeStyle;elbow=horizontal;curved=0;rounded=0;" edge="1" parent="1">
          <mxGeometry relative="1" as="geometry">
            <mxPoint x="-304.9999999999998" y="3260.0000000000005" as="sourcePoint" />
            <Array as="points">
              <mxPoint x="-205" y="3260" />
              <mxPoint x="115" y="3240" />
              <mxPoint x="-230" y="3250" />
            </Array>
            <mxPoint x="-144.99999999999977" y="3260.0000000000005" as="targetPoint" />
            <mxPoint as="offset" />
          </mxGeometry>
        </mxCell>
        <mxCell id="zTZguuECv99ucqXTBtya-43" value=":BTOApplication" style="shape=umlLifeline;perimeter=lifelinePerimeter;whiteSpace=wrap;html=1;container=0;dropTarget=0;collapsible=0;recursiveResize=0;outlineConnect=0;portConstraint=eastwest;newEdgeStyle={&quot;edgeStyle&quot;:&quot;elbowEdgeStyle&quot;,&quot;elbow&quot;:&quot;vertical&quot;,&quot;curved&quot;:0,&quot;rounded&quot;:0};" vertex="1" parent="1">
          <mxGeometry x="680" y="2365" width="160" height="1235" as="geometry" />
        </mxCell>
        <mxCell id="zTZguuECv99ucqXTBtya-48" value="" style="html=1;points=[];perimeter=orthogonalPerimeter;outlineConnect=0;targetShapes=umlLifeline;portConstraint=eastwest;newEdgeStyle={&quot;edgeStyle&quot;:&quot;elbowEdgeStyle&quot;,&quot;elbow&quot;:&quot;vertical&quot;,&quot;curved&quot;:0,&quot;rounded&quot;:0};" vertex="1" parent="zTZguuECv99ucqXTBtya-43">
          <mxGeometry x="72.5" y="957" width="15" height="135" as="geometry" />
        </mxCell>
        <mxCell id="zTZguuECv99ucqXTBtya-44" value=":IDController" style="shape=umlLifeline;perimeter=lifelinePerimeter;whiteSpace=wrap;html=1;container=0;dropTarget=0;collapsible=0;recursiveResize=0;outlineConnect=0;portConstraint=eastwest;newEdgeStyle={&quot;edgeStyle&quot;:&quot;elbowEdgeStyle&quot;,&quot;elbow&quot;:&quot;vertical&quot;,&quot;curved&quot;:0,&quot;rounded&quot;:0};" vertex="1" parent="1">
          <mxGeometry x="850" y="2366" width="160" height="1234" as="geometry" />
        </mxCell>
        <mxCell id="zTZguuECv99ucqXTBtya-52" value="" style="html=1;points=[];perimeter=orthogonalPerimeter;outlineConnect=0;targetShapes=umlLifeline;portConstraint=eastwest;newEdgeStyle={&quot;edgeStyle&quot;:&quot;elbowEdgeStyle&quot;,&quot;elbow&quot;:&quot;vertical&quot;,&quot;curved&quot;:0,&quot;rounded&quot;:0};" vertex="1" parent="zTZguuECv99ucqXTBtya-44">
          <mxGeometry x="72.5" y="982" width="15" height="70" as="geometry" />
        </mxCell>
        <mxCell id="zTZguuECv99ucqXTBtya-46" value="getInstance()" style="html=1;verticalAlign=bottom;endArrow=block;edgeStyle=elbowEdgeStyle;elbow=horizontal;curved=0;rounded=0;" edge="1" parent="1" source="rTC_AdGIr1xHkLju1-tS-137" target="zTZguuECv99ucqXTBtya-45">
          <mxGeometry x="-0.029" y="3" relative="1" as="geometry">
            <mxPoint x="-307.5" y="3320" as="sourcePoint" />
            <Array as="points">
              <mxPoint x="-207.5" y="3320" />
              <mxPoint x="112.5" y="3300" />
              <mxPoint x="-232.5" y="3310" />
            </Array>
            <mxPoint x="382.5" y="3320" as="targetPoint" />
            <mxPoint as="offset" />
          </mxGeometry>
        </mxCell>
        <mxCell id="zTZguuECv99ucqXTBtya-47" value="add(BTOApplication)" style="html=1;verticalAlign=bottom;endArrow=block;edgeStyle=elbowEdgeStyle;elbow=horizontal;curved=0;rounded=0;" edge="1" parent="1" source="rTC_AdGIr1xHkLju1-tS-137">
          <mxGeometry x="-0.029" y="3" relative="1" as="geometry">
            <mxPoint x="-307.5" y="3445" as="sourcePoint" />
            <Array as="points">
              <mxPoint x="-210" y="3445" />
              <mxPoint x="110" y="3425" />
              <mxPoint x="-235" y="3435" />
            </Array>
            <mxPoint x="572.5" y="3445" as="targetPoint" />
            <mxPoint as="offset" />
          </mxGeometry>
        </mxCell>
        <mxCell id="zTZguuECv99ucqXTBtya-50" value="" style="endArrow=classic;html=1;rounded=0;" edge="1" parent="1">
          <mxGeometry width="50" height="50" relative="1" as="geometry">
            <mxPoint x="590" y="3340.5" as="sourcePoint" />
            <mxPoint x="752.5" y="3340.5" as="targetPoint" />
          </mxGeometry>
        </mxCell>
        <mxCell id="zTZguuECv99ucqXTBtya-51" value="new BTOApplication()" style="edgeLabel;html=1;align=center;verticalAlign=middle;resizable=0;points=[];" vertex="1" connectable="0" parent="zTZguuECv99ucqXTBtya-50">
          <mxGeometry x="0.0098" y="2" relative="1" as="geometry">
            <mxPoint y="-10" as="offset" />
          </mxGeometry>
        </mxCell>
        <mxCell id="zTZguuECv99ucqXTBtya-53" value="" style="endArrow=classic;html=1;rounded=0;" edge="1" parent="1">
          <mxGeometry width="50" height="50" relative="1" as="geometry">
            <mxPoint x="767.5" y="3362.5" as="sourcePoint" />
            <mxPoint x="922.5" y="3362.5" as="targetPoint" />
          </mxGeometry>
        </mxCell>
        <mxCell id="zTZguuECv99ucqXTBtya-54" value="newRequestID()" style="edgeLabel;html=1;align=center;verticalAlign=middle;resizable=0;points=[];" vertex="1" connectable="0" parent="zTZguuECv99ucqXTBtya-53">
          <mxGeometry x="0.0098" y="2" relative="1" as="geometry">
            <mxPoint x="-6" y="-8" as="offset" />
          </mxGeometry>
        </mxCell>
        <mxCell id="zTZguuECv99ucqXTBtya-55" value="" style="endArrow=classic;html=1;rounded=0;dashed=1;" edge="1" parent="1">
          <mxGeometry width="50" height="50" relative="1" as="geometry">
            <mxPoint x="922.5" y="3395" as="sourcePoint" />
            <mxPoint x="767.5" y="3395" as="targetPoint" />
          </mxGeometry>
        </mxCell>
        <mxCell id="zTZguuECv99ucqXTBtya-56" value="requestID" style="edgeLabel;html=1;align=center;verticalAlign=middle;resizable=0;points=[];" vertex="1" connectable="0" parent="zTZguuECv99ucqXTBtya-55">
          <mxGeometry x="0.0627" y="-4" relative="1" as="geometry">
            <mxPoint x="5" y="-6" as="offset" />
          </mxGeometry>
        </mxCell>
        <mxCell id="zTZguuECv99ucqXTBtya-57" value="" style="endArrow=classic;html=1;rounded=0;dashed=1;" edge="1" parent="1" source="zTZguuECv99ucqXTBtya-48">
          <mxGeometry width="50" height="50" relative="1" as="geometry">
            <mxPoint x="745" y="3412" as="sourcePoint" />
            <mxPoint x="590" y="3412" as="targetPoint" />
          </mxGeometry>
        </mxCell>
        <mxCell id="zTZguuECv99ucqXTBtya-58" value="BTOApplication" style="edgeLabel;html=1;align=center;verticalAlign=middle;resizable=0;points=[];" vertex="1" connectable="0" parent="zTZguuECv99ucqXTBtya-57">
          <mxGeometry x="0.0627" y="-4" relative="1" as="geometry">
            <mxPoint x="5" y="-6" as="offset" />
          </mxGeometry>
        </mxCell>
        <mxCell id="zTZguuECv99ucqXTBtya-61" style="edgeStyle=elbowEdgeStyle;rounded=0;orthogonalLoop=1;jettySize=auto;html=1;elbow=vertical;curved=0;" edge="1" parent="1" source="zTZguuECv99ucqXTBtya-60" target="rTC_AdGIr1xHkLju1-tS-137">
          <mxGeometry relative="1" as="geometry">
            <mxPoint x="197.5" y="3500.241379310345" as="sourcePoint" />
            <mxPoint x="-300" y="3499.9983870967744" as="targetPoint" />
          </mxGeometry>
        </mxCell>
        <mxCell id="zTZguuECv99ucqXTBtya-62" value="print(&quot;Successfully applied for this project.&quot;)" style="edgeLabel;html=1;align=center;verticalAlign=middle;resizable=0;points=[];" vertex="1" connectable="0" parent="zTZguuECv99ucqXTBtya-61">
          <mxGeometry x="-0.0216" y="-1" relative="1" as="geometry">
            <mxPoint x="-8" y="-8" as="offset" />
          </mxGeometry>
        </mxCell>
        <mxCell id="zTZguuECv99ucqXTBtya-63" value="" style="html=1;verticalAlign=bottom;labelBackgroundColor=none;endArrow=open;endFill=0;dashed=1;rounded=0;" edge="1" parent="1">
          <mxGeometry width="160" relative="1" as="geometry">
            <mxPoint x="-315" y="3500" as="sourcePoint" />
            <mxPoint x="-490" y="3500" as="targetPoint" />
          </mxGeometry>
        </mxCell>
        <mxCell id="zTZguuECv99ucqXTBtya-64" value="return" style="edgeLabel;html=1;align=center;verticalAlign=middle;resizable=0;points=[];" vertex="1" connectable="0" parent="zTZguuECv99ucqXTBtya-63">
          <mxGeometry x="0.1177" y="1" relative="1" as="geometry">
            <mxPoint x="14" y="-11" as="offset" />
          </mxGeometry>
        </mxCell>
      </root>
    </mxGraphModel>
  </diagram>
</mxfile>
